<svg id="visual" viewBox="0 0 960 540" width="960" height="540" xmlns="http://www.w3.org/2000/svg" xmlns:xlink="http://www.w3.org/1999/xlink" version="1.1"><rect x="0" y="0" width="960" height="540" fill="#f3d2c1"></rect><path d="M0 528L40 523.7C80 519.3 160 510.7 240 505C320 499.3 400 496.7 480 500.8C560 505 640 516 720 517.2C800 518.3 880 509.7 920 505.3L960 501L960 541L920 541C880 541 800 541 720 541C640 541 560 541 480 541C400 541 320 541 240 541C160 541 80 541 40 541L0 541Z" fill="#23242c" stroke-linecap="round" stroke-linejoin="miter"></path></svg>