<?xml version="1.0" encoding="utf-8" ?>
<svg xmlns="http://www.w3.org/2000/svg" xmlns:xlink="http://www.w3.org/1999/xlink" width="512" height="512">
	<path d="M203.258 19.6772C206.921 18.1502 211.105 17.5982 213.748 16.4375C216.694 15.1438 219.217 12.8737 222 11.2521C228.799 7.29111 236.36 4.9626 244 3.24698L246.948 2.62878C273.84 -0.760613 306.126 2.37012 324.102 25.103L328.114 30.8565C334.475 26.0671 349.121 33.8007 355.094 36.385C442.081 74.02 499.333 166.65 508.726 259.072C509.042 262.183 509.599 265.232 509.795 268.366L509.99 296.288C509.978 299.286 510.073 302.447 509.658 305.42L507.43 323.167C503.253 347.961 495.571 371.36 485.239 394.233C482.787 399.659 480.567 405.509 477.755 410.735L478.297 413.698C479.663 423.377 473.898 435.008 468.251 442.343C455.717 458.627 434.52 465.552 415.5 470.749L400.75 474.301C398.551 474.774 396.367 475.333 394.134 475.614C396.383 478.514 398.451 481.892 401.034 484.482C404.354 487.811 409.577 490.131 411.943 494.234L412.268 494.844C415.364 500.406 410.811 506.457 405.875 508.913C398.605 512.529 376.759 507.796 369.206 506.2L310 494.748C299.154 493.02 288.232 491.124 277.243 490.565L253.549 490.823C244.375 490.776 244.044 489.879 234.049 492.025L180.507 503.333C169.715 505.748 158.722 508.27 147.75 509.686C143.856 510.188 127.84 510.751 124.161 509.53L123.875 509.43C119.31 508 115.079 504.997 114.157 500.023C111.769 487.137 123.145 491.478 129.189 483.005L133.587 476.381C132.67 476.315 131.71 476.298 130.812 476.103L104.274 471.415C77.7837 465.555 40.8554 452.993 37.7055 421.927C37.3193 418.118 37.4325 414.314 37.5082 410.494L38.3804 408.57C37.3993 408.008 36.5557 407.324 35.6763 406.621C31.343 402.147 28.8703 395.767 26.267 390.188C8.6216 352.366 2.05399 322.381 2.01016 281.281C1.96146 235.619 17.1502 183.518 40.2179 143.633C62.9798 104.277 97.4887 68.4996 136.948 45.875C148.319 39.3552 160.152 34.6631 172.273 29.8002L187.44 23.5446C192.596 21.6928 197.824 20.4105 203.258 19.6772ZM345.02 272.115C343.978 274.336 344.482 278.834 344.48 281.278L344.542 300.375C344.597 318.235 342.236 335.921 353.5 351.25L353.945 351.853C364.052 364.981 379.165 370.913 394.75 374.32L429.749 380.321C434.235 381.053 438.796 382.291 443.375 382.213L443.529 381.875C441.275 378.39 428.551 374.856 424.57 373.165L402.875 362.905C387.542 354.879 363.134 341.098 364.872 320.894C365.525 313.294 365.217 305.522 365.216 297.89C365.213 286.038 365.359 274.236 364.317 262.411C353.749 263.302 351.645 265.396 345.02 272.115ZM147.98 262.614C147.318 269.582 147.518 276.595 147.532 283.587L147.602 323.006C147.614 325.353 147.996 328.341 147.074 330.5C139.719 347.724 115.784 360.818 98.8497 368.416L80.2687 376.045C76.8268 377.377 70.7635 378.551 68.4954 381.75L68.75 382.179C72.3709 382.04 75.8587 381.303 79.4194 380.699L93.3457 378.459C105.332 376.492 118.06 375.275 129.5 371.011C145.309 365.119 162.296 352.421 166.496 335.5C168.977 325.507 168.234 314.85 168.244 304.625L168.219 272.595C159.767 268.459 161.685 262.64 147.98 262.614Z"/>
	<path fill="#353431" d="M157.633 477.536C159.91 477.134 162.566 477.589 164.875 477.771L195.918 479.968L178.277 483.305L146.453 489.659C150.453 485.838 152.99 480.76 157.633 477.536Z"/>
	<path fill="white" d="M274.381 168.125L274.979 168.172C276.698 174.992 278.755 181.302 282.798 187.173C272.742 201.184 253.411 203.659 238.828 195.558C235.195 193.255 232.225 190.653 229.356 187.437L237.418 168.331L244.012 170.706C254.108 173.84 264.983 173.028 274.381 168.125Z"/>
	<path fill="#52505B" d="M258.971 21.5827C277.104 21.2399 304.341 22.3766 311.284 43.0087C313.758 50.3626 312.354 66.2644 308.675 73.5906C305.01 71.4393 302.148 68.4103 298.952 65.6599C285.056 53.7031 266.042 49.0615 248.053 50.4371L245.486 50.9575C225.881 54.545 214.968 62.452 204.178 78.095C201.156 70.3562 198.104 60.1461 197.762 51.6988C197.433 43.5766 207.232 39.6866 213.997 39.2321C220.841 38.7723 220.557 36.2128 225.139 32.1328C233.774 24.4427 247.803 22.0865 258.971 21.5827Z"/>
	<path fill="white" d="M294.166 113.59C292.352 122.82 288.998 128.357 283.589 135.989C275.026 148.073 268.166 154.782 251.875 153.222C228.152 150.95 216.725 114.957 218.868 94.8979C220.113 83.2408 232.001 75.4274 242.355 71.8562C257.512 66.6282 280.26 71.4409 290.132 84.3673C295.264 91.0871 295.635 99.3253 294.52 107.375L294.166 113.59Z"/>
	<path fill="#A1C5DF" d="M294.52 107.375L294.166 113.59L292.974 113.125C292.245 113.55 292.008 114.174 291.5 114.805L291.257 114.625C292 111.906 292.976 109.729 294.52 107.375Z"/>
	<defs>
		<linearGradient id="gradient_0" gradientUnits="userSpaceOnUse" x1="450.13416" y1="388.82401" x2="73.370918" y2="483.14816">
			<stop offset="0" stop-color="#037DF6"/>
			<stop offset="1" stop-color="#00D6FF"/>
		</linearGradient>
	</defs>
	<path fill="url(#gradient_0)" d="M227.613 391.493L228.836 391.911C230.131 393.651 231.707 400.844 233.13 401.59C235.269 402.71 238.93 402.227 241.236 402.228L269.969 402.169C271.85 402.095 273.713 401.705 275.604 401.611L287.276 401.32L356.511 392.595C370.132 390.243 369.715 390.056 383.5 392.679L426.808 400.051C437.851 401.8 460.414 404.249 457.705 420.783C453.795 444.638 405.845 453.516 385.631 457.886C381.369 458.808 370.024 454.728 365.273 453.667L344.278 448.85C341.803 448.242 339.116 447.82 336.718 446.981L365.163 438.828C369.459 437.592 374.217 436.637 378.195 434.554C387.828 429.511 382.443 416.288 372.394 417.302C369.624 417.581 366.792 418.561 364.088 419.241L308.356 432.839C293.177 436.185 288.748 438.456 273.402 435.669L233.5 427.732L163.678 418.068C159.488 417.5 155.334 416.792 151.105 416.575C134.377 415.718 134.412 431.336 144.828 435.348C147.772 436.482 151.146 436.664 154.256 436.97L198.586 442.27L247.125 449.908L276.205 455.924L333.75 466.17L355.503 471.173C366.934 474.396 373.218 477.52 379.76 488.173L307.485 474.932L191.995 460.528L164.857 457.938C160.536 457.54 156.226 456.791 151.895 456.559C147.291 456.312 142.922 457.523 138.375 457.435C134.318 457.356 130.257 456.544 126.264 455.871L106.223 451.917C91.7323 448.469 53.8887 436.873 57.5778 416.259C60.0759 402.3 74.534 402.202 85.75 400.476L129.921 392.327C142.052 389.915 143.202 389.402 155.425 391.703L170.698 394.62C173.861 395.249 185.955 397.323 187.488 399.25C188.381 403.141 187.62 401.383 193.337 401.411L201.957 401.483C208.85 401.543 212.277 400.187 215.575 393.219C217.249 393.414 218.852 393.026 220.5 392.778L227.613 391.493Z"/>
	<path fill="#FF6E6C" d="M147.98 262.614C148.112 225.111 149.976 216.612 184.128 204.378L210.057 195.777C215.479 201.14 220.023 206.5 226.499 210.732C250.625 226.499 283.994 220.518 299.923 196.056C313.551 198.992 344.134 208.673 352.692 217.308C364.176 228.897 364.185 247.245 364.143 262.411C353.749 263.302 351.645 265.396 345.02 272.115C342.958 268.348 340.189 264.4 335.863 263.084C331.087 261.631 325.78 265.128 324.494 269.805C323.925 271.878 324.236 274.696 324.235 276.867L324.24 314.699C324.251 324.256 324.181 331 326.822 340.291C330.32 352.601 337.462 365.112 346.53 374.198C341.485 374.396 336.419 375.359 331.426 376.06L309.884 378.774C286.098 381.423 262.055 382.525 238.125 381.659C231.057 381.404 232.063 389.898 227.613 391.493L220.5 392.778C218.852 393.026 217.249 393.414 215.575 393.219C216.156 390.174 213.751 384.989 211.525 383.033L211.224 382.771C209.123 380.837 200.435 381.942 197.397 381.528C195.559 381.278 193.615 380.625 191.819 380.144L179.379 376.622C163.351 372.262 165.762 376.403 173.675 364.886C182.053 352.691 187.087 338.978 187.691 324.158L187.822 274.632C187.825 271.855 188.4 270.097 186.465 267.953C184.428 265.695 179.96 261.497 176.53 262.932C172.951 264.431 168.396 268.436 168.219 272.595C159.767 268.459 161.685 262.64 147.98 262.614Z"/>
	<path fill="#FF6E6C" d="M328.114 30.8565C334.475 26.0671 349.121 33.8007 355.094 36.385C442.081 74.02 499.333 166.65 508.726 259.072C509.042 262.183 509.599 265.232 509.795 268.366L509.99 296.288C509.978 299.286 510.073 302.447 509.658 305.42L507.43 323.167C503.253 347.961 495.571 371.36 485.239 394.233C482.787 399.659 480.567 405.509 477.755 410.735C477.197 410.112 476.784 408.964 476.371 408.195C472.823 401.59 464.403 396.517 464.289 390.294L464.215 383.5C463.596 370.583 456.624 364.212 445.475 359.871L432.501 355.176C417.159 349.656 398.723 340.406 387.323 329.048C384.831 326.564 384.558 326.839 384.554 323.375L384.602 277.264C384.62 259.881 385.575 241.451 379.767 224.775C372.063 202.657 360.123 195.569 339.763 188.081L306.367 176.818C304.208 176.119 301.929 175.476 299.903 174.449C296.119 172.531 293.009 158.418 294.753 155.251L294.971 154.875C297.56 150.298 301.01 146.216 303.686 141.657C312.435 126.751 316.401 109.591 314.432 92.3741C324.94 94.8548 327.323 82.6408 329.243 74.9549C331.912 64.271 334.056 51.8563 331.36 40.9725L328.114 30.8565Z"/>
	<path fill="#FF6E6C" d="M35.6763 406.621C31.343 402.147 28.8703 395.767 26.267 390.188C8.6216 352.366 2.05399 322.381 2.01016 281.281C1.96146 235.619 17.1502 183.518 40.2179 143.633C62.9798 104.277 97.4887 68.4996 136.948 45.875C148.319 39.3552 160.152 34.6631 172.273 29.8002L187.44 23.5446C192.596 21.6928 197.824 20.4105 203.258 19.6772L203.016 19.8602C193.757 26.7397 180.816 30.4216 178.828 43.6751C176.757 57.4777 181.727 91.5502 197.341 98.027C199.919 99.0964 198.626 103.016 198.855 106.5C199.825 121.25 204.788 134.552 212.515 147.077C214.442 150.2 216.92 153.384 218.25 156.803C213.348 177.811 216.031 173.632 195.899 179.781L172.581 187.744C129.638 204.345 127.716 228.116 127.723 272.017L127.857 322.854C127.907 324.074 128.453 326.57 127.82 327.562C124.376 332.959 110.5 340.55 104.988 343.443L70.875 358.502C55.0174 364.071 48.4046 368.898 48.7841 388.142C48.9596 397.041 42.5871 400.719 38.3804 408.57C37.3993 408.008 36.5557 407.324 35.6763 406.621Z"/>
</svg>
